{
  "accessors": [
    {
      "bufferView": 2,
      "componentType": 5126,
      "count": 2990,
      "max": [
        11.76476764678955,
        16.720611572265625,
        3.488485336303711
      ],
      "min": [
        -12.208541870117188,
        -11.260578155517578,
        -28.41100311279297
      ],
      "type": "VEC3"
    },
    {
      "bufferView": 2,
      "byteOffset": 35880,
      "componentType": 5126,
      "count": 2990,
      "max": [
        0.999609649181366,
        0.999984622001648,
        0.999796986579895
      ],
      "min": [
        -0.99777752161026,
        -0.9998594522476196,
        -0.9950391054153442
      ],
      "type": "VEC3"
    },
    {
      "bufferView": 3,
      "componentType": 5126,
      "count": 2990,
      "max": [
        0.999927818775177,
        0.9999744296073914,
        0.9940998554229736,
        1.0
      ],
      "min": [
        -0.9999923706054688,
        -0.9990511536598206,
        -0.9995973706245422,
        -1.0
      ],
      "type": "VEC4"
    },
    {
      "bufferView": 1,
      "componentType": 5126,
      "count": 2990,
      "max": [
        0.9990234375,
        0.9942665100097656
      ],
      "min": [
        0.000499725341796875,
        0.0009765625
      ],
      "type": "VEC2"
    },
    {
      "bufferView": 1,
      "byteOffset": 23920,
      "componentType": 5126,
      "count": 2990,
      "max": [
        0.982421875,
        0.984375
      ],
      "min": [
        0.015625,
        0.02783203125
      ],
      "type": "VEC2"
    },
    {
      "bufferView": 0,
      "componentType": 5125,
      "count": 15054,
      "type": "SCALAR"
    },
    {
      "bufferView": 2,
      "byteOffset": 71760,
      "componentType": 5126,
      "count": 2899,
      "max": [
        11.894705772399902,
        16.852998733520508,
        3.6195240020751953
      ],
      "min": [
        -12.338479995727539,
        -11.391468048095703,
        -28.54169464111328
      ],
      "type": "VEC3"
    },
    {
      "bufferView": 2,
      "byteOffset": 106548,
      "componentType": 5126,
      "count": 2899,
      "max": [
        0.999609649181366,
        0.999984622001648,
        0.999796986579895
      ],
      "min": [
        -0.99777752161026,
        -0.9998594522476196,
        -0.9950391054153442
      ],
      "type": "VEC3"
    },
    {
      "bufferView": 3,
      "byteOffset": 47840,
      "componentType": 5126,
      "count": 2899,
      "max": [
        0.9999392628669739,
        0.9999376535415649,
        0.9980595707893372,
        1.0
      ],
      "min": [
        -0.9999873042106628,
        -0.9990099668502808,
        -0.9993686079978943,
        -1.0
      ],
      "type": "VEC4"
    },
    {
      "bufferView": 1,
      "byteOffset": 47840,
      "componentType": 5126,
      "count": 2899,
      "max": [
        0.9990234375,
        0.9942665100097656
      ],
      "min": [
        0.000499725341796875,
        0.0009765625
      ],
      "type": "VEC2"
    },
    {
      "bufferView": 1,
      "byteOffset": 71032,
      "componentType": 5126,
      "count": 2899,
      "max": [
        0.92724609375,
        0.984375
      ],
      "min": [
        0.015625,
        0.03271484375
      ],
      "type": "VEC2"
    },
    {
      "bufferView": 0,
      "byteOffset": 60216,
      "componentType": 5125,
      "count": 14742,
      "type": "SCALAR"
    }
  ],
  "asset": {
    "extras": {
      "author": "hype404 (https://sketchfab.com/hype404)",
      "license": "CC-BY-4.0 (http://creativecommons.org/licenses/by/4.0/)",
      "source": "https://sketchfab.com/3d-models/wig-79cae6a6a01143808e94ab33aba03136",
      "title": "WIG"
    },
    "generator": "Sketchfab-13.70.0",
    "version": "2.0"
  },
  "bufferViews": [
    {
      "buffer": 0,
      "byteLength": 119184,
      "name": "floatBufferViews",
      "target": 34963
    },
    {
      "buffer": 0,
      "byteLength": 94224,
      "byteOffset": 119184,
      "byteStride": 8,
      "name": "floatBufferViews",
      "target": 34962
    },
    {
      "buffer": 0,
      "byteLength": 141336,
      "byteOffset": 213408,
      "byteStride": 12,
      "name": "floatBufferViews",
      "target": 34962
    },
    {
      "buffer": 0,
      "byteLength": 94224,
      "byteOffset": 354744,
      "byteStride": 16,
      "name": "floatBufferViews",
      "target": 34962
    }
  ],
  "buffers": [
    {
      "byteLength": 448968,
      "uri": "scene.bin"
    }
  ],
  "images": [
    {
      "uri": "textures/MI_Wig_01a_metallicRoughness.png"
    },
    {
      "uri": "textures/MI_Wig_01a_normal.png"
    },
    {
      "uri": "textures/MI_Wig_01b_metallicRoughness.png"
    }
  ],
  "materials": [
    {
      "doubleSided": true,
      "name": "MI_Wig_01a",
      "normalTexture": {
        "index": 1
      },
      "pbrMetallicRoughness": {
        "baseColorFactor": [
          0.215861,
          0.215861,
          0.215861,
          1.0
        ],
        "metallicRoughnessTexture": {
          "index": 0
        }
      }
    },
    {
      "doubleSided": true,
      "name": "MI_Wig_01b",
      "normalTexture": {
        "index": 1
      },
      "occlusionTexture": {
        "index": 2
      },
      "pbrMetallicRoughness": {
        "baseColorFactor": [
          0.6358071275813759,
          0.6358071275813759,
          0.6358071275813759,
          1.0
        ],
        "metallicFactor": 0.0,
        "metallicRoughnessTexture": {
          "index": 2
        }
      }
    }
  ],
  "meshes": [
    {
      "name": "SM_Wig_01a_MI_Wig_01a_0",
      "primitives": [
        {
          "attributes": {
            "NORMAL": 1,
            "POSITION": 0,
            "TANGENT": 2,
            "TEXCOORD_0": 3,
            "TEXCOORD_1": 4
          },
          "indices": 5,
          "material": 0,
          "mode": 4
        }
      ]
    },
    {
      "name": "SM_Wig_01a_MI_Wig_01b_0",
      "primitives": [
        {
          "attributes": {
            "NORMAL": 7,
            "POSITION": 6,
            "TANGENT": 8,
            "TEXCOORD_0": 9,
            "TEXCOORD_1": 10
          },
          "indices": 11,
          "material": 1,
          "mode": 4
        }
      ]
    }
  ],
  "nodes": [
    {
      "children": [
        1
      ],
      "matrix": [
        1.0,
        0.0,
        0.0,
        0.0,
        0.0,
        2.220446049250313e-16,
        -1.0,
        0.0,
        0.0,
        1.0,
        2.220446049250313e-16,
        0.0,
        0.0,
        0.0,
        0.0,
        1.0
      ],
      "name": "Sketchfab_model"
    },
    {
      "children": [
        2
      ],
      "matrix": [
        0.009999999776482582,
        0.0,
        0.0,
        0.0,
        0.0,
        0.0,
        0.009999999776482582,
        0.0,
        0.0,
        -0.009999999776482582,
        0.0,
        0.0,
        0.0,
        0.0,
        0.0,
        1.0
      ],
      "name": "uploads_files_2348854_SM_Wig_01a.fbx"
    },
    {
      "children": [
        3
      ],
      "name": "RootNode"
    },
    {
      "children": [
        4,
        5
      ],
      "matrix": [
        1.0,
        0.0,
        0.0,
        0.0,
        0.0,
        2.220446049250313e-16,
        -1.0,
        0.0,
        0.0,
        1.0,
        2.220446049250313e-16,
        0.0,
        0.0,
        0.0,
        0.0,
        1.0
      ],
      "name": "SM_Wig_01a"
    },
    {
      "mesh": 0,
      "name": "SM_Wig_01a_MI_Wig_01a_0"
    },
    {
      "mesh": 1,
      "name": "SM_Wig_01a_MI_Wig_01b_0"
    }
  ],
  "samplers": [
    {
      "magFilter": 9729,
      "minFilter": 9987,
      "wrapS": 10497,
      "wrapT": 10497
    }
  ],
  "scene": 0,
  "scenes": [
    {
      "name": "Sketchfab_Scene",
      "nodes": [
        0
      ]
    }
  ],
  "textures": [
    {
      "sampler": 0,
      "source": 0
    },
    {
      "sampler": 0,
      "source": 1
    },
    {
      "sampler": 0,
      "source": 2
    }
  ]
}
